<mxfile host="app.diagrams.net" modified="2023-09-05T11:16:21.570Z" agent="Mozilla/5.0 (Windows NT 10.0; Win64; x64) AppleWebKit/537.36 (KHTML, like Gecko) Chrome/116.0.0.0 Safari/537.36" version="21.7.2" etag="tc7jy4dvGrmApLCuNR3L" type="github">
  <diagram name="Page-1" id="rf3pIYwVzAg_kOiAwgrY">
    <mxGraphModel>
      <root>
        <mxCell id="0" />
        <mxCell id="1" parent="0" />
      </root>
    </mxGraphModel>
  </diagram>
</mxfile>
